<?xml version="1.0" standalone="no"?>
<!DOCTYPE svg PUBLIC "-//W3C//DTD SVG 20010904//EN"
 "http://www.w3.org/TR/2001/REC-SVG-20010904/DTD/svg10.dtd">
<svg version="1.0" xmlns="http://www.w3.org/2000/svg"
 width="1024.000000pt" height="1004.000000pt" viewBox="0 0 1024.000000 1004.000000"
 preserveAspectRatio="xMidYMid meet">

<g transform="translate(0.000000,1004.000000) scale(0.100000,-0.100000)"
fill="#000000" stroke="none">
<path d="M0 5020 l0 -5020 5120 0 5120 0 0 5020 0 5020 -5120 0 -5120 0 0
-5020z m3175 4576 c723 -114 1346 -534 1712 -1153 32 -54 75 -114 95 -134 57
-55 141 -73 209 -45 60 25 87 54 155 168 128 215 238 353 416 523 318 305 700
511 1123 605 172 38 260 49 440 57 953 38 1835 -491 2254 -1352 339 -695 317
-1525 -57 -2200 -99 -178 -150 -249 -441 -610 -111 -137 -242 -299 -291 -360
-49 -60 -256 -317 -460 -570 -204 -253 -411 -509 -460 -570 -48 -60 -245 -304
-437 -541 -191 -237 -559 -694 -818 -1014 -258 -321 -507 -628 -552 -684 -136
-168 -603 -748 -776 -963 -89 -111 -164 -202 -167 -202 -3 0 -78 91 -167 202
-147 183 -558 694 -783 972 -49 61 -294 364 -545 675 -251 311 -657 814 -903
1119 -246 304 -613 759 -815 1010 -203 251 -405 501 -450 557 -496 611 -602
749 -701 914 -345 573 -429 1294 -225 1940 218 690 737 1246 1414 1515 177 71
449 136 635 154 136 13 480 5 595 -13z"/>
</g>
</svg>
